<svg fill="#000000" version="1.1" id="Capa_1" xmlns="http://www.w3.org/2000/svg" xmlns:xlink="http://www.w3.org/1999/xlink" width="64px" height="64px" viewBox="0 0 446.381 446.381" xml:space="preserve">

<g id="SVGRepo_bgCarrier" stroke-width="0"/>

<g id="SVGRepo_tracerCarrier" stroke-linecap="round" stroke-linejoin="round"/>

<g id="SVGRepo_iconCarrier"> <g> <g> <circle cx="223.19" cy="223.19" r="50.998"/> <path d="M441.381,193.19h-39.666c-12.701-75.828-72.697-135.823-148.525-148.524V5c0-2.761-2.238-5-5-5h-50c-2.761,0-5,2.239-5,5 v39.666C117.362,57.367,57.367,117.362,44.666,193.19H5c-2.761,0-5,2.239-5,5v50c0,2.762,2.239,5,5,5h39.666 c12.701,75.828,72.696,135.824,148.524,148.525v39.666c0,2.76,2.239,5,5,5h50c2.762,0,5-2.24,5-5v-39.666 c75.828-12.701,135.824-72.697,148.525-148.525h39.666c2.76,0,5-2.238,5-5v-50C446.381,195.429,444.143,193.19,441.381,193.19z M223.19,354.214c-72.247,0-131.024-58.776-131.024-131.024c0-72.247,58.777-131.024,131.024-131.024 c72.248,0,131.025,58.777,131.025,131.024C354.215,295.438,295.438,354.214,223.19,354.214z"/> </g> </g> </g>

</svg>
