<svg viewBox="0 0 129 129" width="129" height="129" xmlns="http://www.w3.org/2000/svg"><g fill="none" fill-rule="evenodd"><path d="M12.85.928h103.384c6.797 0 12.307 5.51 12.307 12.308V116.62c0 6.798-5.51 12.308-12.307 12.308H12.849c-6.797 0-12.308-5.51-12.308-12.308V13.236C.541 6.438 6.051.928 12.85.928z" fill="#E05C43" fill-rule="nonzero"/><path d="M52.506 65.515c.522-20.675 14.073-29.71 18.766-25.187 4.692 4.512 2.951 14.24-5.909 20.322-8.858 6.083-12.857 4.865-12.857 4.865m12.857 21.022c-12.039.304-10.771-7.605-10.771-7.605S98.545 63.89 86.56 34.178c-5.386-7.645-11.645-10.047-20.502-9.872-8.86.173-19.77 5.576-26.894 21.563-3.398 7.63-4.552 14.857-5.245 20.334 0 0-7.785 1.563-11.955-1.904-4.168-3.472-6.36 0-6.36 0s-7.178 8.4-.052 11.183c7.124 2.782 18.219 3.344 18.219 3.344h-.005c1.02 7.398 3.534 14.51 12.668 20.45 15.316 9.965 38.044-.56 38.044-.56 13.622-5.693 22.67-14.507 26.527-18.8a3.535 3.535 0 0 0-.092-4.823l-4.436-4.61a3.537 3.537 0 0 0-4.799-.283c-5.925 4.853-21.5 16.337-36.316 16.337" fill="#FEFEFE"/></g></svg>