<svg xmlns="http://www.w3.org/2000/svg" viewBox="0 0 100 100" width="100" height="100">
  <path d="M66.755 10.115H33.937c-7.98 0-14.451 6.472-14.451 14.454V75.75c0 7.979 5.267 14.451 13.246 14.451h34.023c7.982 0 14.454-6.472 14.454-14.451V24.569c0-7.982-6.472-14.454-14.454-14.454zm7.828 62.74c0 6.597-4.146 10.128-10.746 10.128H36.161c-6.6 0-9.75-3.531-9.75-10.128V28.082c0-9.814 4.149-10.749 10.748-10.749h26.678c6.6 0 10.746 2.941 10.746 9.542v45.98z"/>
  <path d="M42.065 48.349a4.063 4.063 0 0 0-8.128 0A4.063 4.063 0 0 0 38 52.414a4.061 4.061 0 0 0 4.065-4.065zm11.894 0a4.065 4.065 0 0 0-8.129 0 4.062 4.062 0 0 0 4.065 4.065 4.063 4.063 0 0 0 4.064-4.065zm12.346 0a4.065 4.065 0 0 0-8.129 0 4.064 4.064 0 1 0 8.129 0zm-24.24 11.893a4.065 4.065 0 0 0-8.128 0 4.065 4.065 0 1 0 8.128 0zm11.894 0a4.067 4.067 0 0 0-4.064-4.064 4.066 4.066 0 0 0 0 8.132 4.064 4.064 0 0 0 4.064-4.068zm12.346 0a4.067 4.067 0 0 0-4.067-4.064 4.066 4.066 0 0 0 0 8.132 4.065 4.065 0 0 0 4.067-4.068zm-24.24 11.444A4.066 4.066 0 0 0 38 67.618a4.068 4.068 0 0 0-4.063 4.068A4.063 4.063 0 0 0 38 75.75a4.061 4.061 0 0 0 4.065-4.064z"/>
  <circle cx="49.895" cy="71.686" r="4.064"/>
  <path d="M66.305 71.686a4.069 4.069 0 0 0-4.067-4.068 4.068 4.068 0 0 0-4.062 4.068 4.064 4.064 0 1 0 8.129 0zm4.666-42.829a6.097 6.097 0 0 1-6.098 6.098H35.517a6.097 6.097 0 0 1-6.096-6.098 6.095 6.095 0 0 1 6.096-6.095h29.356a6.096 6.096 0 0 1 6.098 6.095z"/>
</svg>
