<svg width="20" height="20" viewBox="0 0 20 20" fill="none" xmlns="http://www.w3.org/2000/svg">
<path d="M5.89162 6.31899C5.80388 6.15852 5.66886 6.04827 5.51624 6.01251C5.36362 5.97674 5.20591 6.01839 5.0778 6.12829L1.25461 9.3923C1.17612 9.45966 1.11191 9.54996 1.06755 9.6554C1.02318 9.76084 1 9.87823 1 9.99742C1 10.1166 1.02318 10.234 1.06755 10.3394C1.11191 10.4449 1.17612 10.5352 1.25461 10.6026L5.0778 13.8666C5.1412 13.9224 5.21281 13.9619 5.28848 13.9828C5.36415 14.0037 5.44238 14.0056 5.51864 13.9883C5.59489 13.971 5.66765 13.935 5.7327 13.8822C5.79775 13.8295 5.85379 13.7611 5.89758 13.681C5.94136 13.6009 5.97202 13.5107 5.98777 13.4156C6.00353 13.3206 6.00406 13.2226 5.98935 13.1272C5.97464 13.0319 5.94497 12.9412 5.90206 12.8604C5.85915 12.7795 5.80386 12.7102 5.7394 12.6563L2.62463 10.0011L5.7394 7.35321C5.80447 7.29873 5.86015 7.22847 5.90317 7.14657C5.94619 7.06467 5.97567 6.97279 5.98986 6.87638C6.00405 6.77996 6.00267 6.68096 5.9858 6.58522C5.96893 6.48949 5.9369 6.39896 5.89162 6.31899Z" fill="black"/>
<path d="M17.7453 9.38656L13.9213 6.12687C13.7916 6.0171 13.6324 5.97627 13.4786 6.01337C13.3249 6.05046 13.1892 6.16243 13.1014 6.32465C13.0137 6.48687 12.981 6.68605 13.0107 6.87837C13.0403 7.07069 13.1299 7.2404 13.2595 7.35017L16.375 10.0092L13.2595 12.6682C13.1335 12.7791 13.0475 12.9476 13.0201 13.1372C12.9927 13.3269 13.0261 13.5224 13.1132 13.6814C13.2002 13.8404 13.3339 13.9501 13.4851 13.9867C13.6364 14.0233 13.7931 13.9838 13.9213 13.8769L17.7453 10.6172C17.8238 10.5499 17.8881 10.4597 17.9324 10.3544C17.9768 10.2491 18 10.1319 18 10.0129C18 9.89383 17.9768 9.77659 17.9324 9.67129C17.8881 9.56599 17.8238 9.4758 17.7453 9.40853V9.38656Z" fill="black"/>
<path d="M11.3509 4.01853C11.2412 3.99849 11.1272 3.99466 11.0154 4.00725C10.9037 4.01984 10.7964 4.04861 10.6997 4.0919C10.603 4.1352 10.5189 4.19217 10.452 4.25956C10.3851 4.32695 10.3369 4.40343 10.31 4.48463L7.02506 14.2302C6.99796 14.3114 6.99278 14.3957 7.0098 14.4783C7.02683 14.561 7.06572 14.6403 7.12427 14.7118C7.18281 14.7833 7.25985 14.8456 7.35098 14.895C7.4421 14.9445 7.54552 14.9801 7.65532 15H7.8654C8.05634 14.9996 8.24165 14.9521 8.39209 14.8652C8.54252 14.7782 8.64952 14.6567 8.69619 14.5198L11.9812 4.76711C12.0275 4.60628 11.9877 4.43843 11.8701 4.29884C11.7526 4.15925 11.5665 4.05878 11.3509 4.01853V4.01853Z" fill="black"/>
</svg>
