<svg width="60" height="48" viewBox="0 0 60 48" fill="none" xmlns="http://www.w3.org/2000/svg">
  <path fill-rule="evenodd" clip-rule="evenodd" d="M24.7034 25.2063C25.0129 12.9475 33.0477 7.59032 35.8303 10.2722C38.6124 12.9475 37.5801 18.7155 32.3267 22.3217C27.0745 25.9285 24.7034 25.2063 24.7034 25.2063V25.2063ZM32.3267 37.671C25.1884 37.8512 25.9402 33.1617 25.9402 33.1617C25.9402 33.1617 52.0014 24.2428 44.8951 6.62562C41.7015 2.09265 37.9904 0.668429 32.7388 0.772192C27.4854 0.87477 21.0165 4.07838 16.7925 13.5576C14.7777 18.0817 14.0934 22.3668 13.6825 25.6143C13.6825 25.6143 9.06657 26.541 6.59404 24.4853C4.1227 22.4267 2.82299 24.4853 2.82299 24.4853C2.82299 24.4853 -1.43307 29.466 2.79216 31.1161C7.01621 32.7656 13.5948 33.0989 13.5948 33.0989H13.5918C14.1966 37.4854 15.6872 41.7023 21.1031 45.2243C30.1844 51.1329 43.6606 44.8923 43.6606 44.8923C51.7375 41.5167 57.1024 36.2906 59.3893 33.7452C59.7441 33.3502 59.9357 32.8354 59.9256 32.3046C59.9155 31.7738 59.7043 31.2666 59.3348 30.8855L56.7045 28.152C56.3386 27.7707 55.8422 27.5415 55.3147 27.5104C54.7871 27.4793 54.2672 27.6485 53.859 27.9842C50.3459 30.8617 41.111 37.671 32.3261 37.671" />
</svg>
