<svg width="129" height="129" viewBox="0 0 129 129" fill="none" xmlns="http://www.w3.org/2000/svg">
  <mask id="path-1-inside-1" fill="white">
    <path fill-rule="evenodd" clip-rule="evenodd" d="M15.3352 0.927994H12.85C11.8181 0.927994 10.8159 1.05492 9.85812 1.294L10.2214 2.74934C11.0613 2.53968 11.9415 2.42799 12.85 2.42799H15.3352V0.927994ZM6.52109 2.67703L7.29332 3.96297C5.77045 4.87748 4.49088 6.15693 3.57627 7.6796L2.2904 6.90723C3.33157 5.17387 4.78752 3.71806 6.52109 2.67703ZM0.540985 114.135H2.04099V116.62C2.04099 117.528 2.1527 118.408 2.36241 119.248L0.907097 119.612C0.667947 118.654 0.540985 117.652 0.540985 116.62V114.135ZM2.29037 122.948L3.57624 122.176C4.49083 123.699 5.77033 124.978 7.29296 125.893L6.52061 127.179C4.78733 126.137 3.33149 124.682 2.29037 122.948ZM113.749 128.928V127.428H116.234C117.142 127.428 118.022 127.316 118.862 127.107L119.226 128.562C118.268 128.801 117.266 128.928 116.234 128.928H113.749ZM122.562 127.179L121.79 125.893C123.312 124.978 124.592 123.699 125.506 122.176L126.792 122.948C125.751 124.682 124.295 126.137 122.562 127.179ZM128.541 15.7212H127.041V13.236C127.041 12.3277 126.929 11.4475 126.72 10.6078L128.175 10.2444C128.414 11.2021 128.541 12.2042 128.541 13.236V15.7212ZM126.792 6.90773L125.506 7.68C124.592 6.1573 123.312 4.87783 121.79 3.96326L122.562 2.67742C124.295 3.71853 125.751 5.17437 126.792 6.90773ZM18.3174 0.927994V2.42799H23.2878V0.927994H18.3174ZM26.27 0.927994V2.42799H31.2404V0.927994H26.27ZM34.2227 0.927994V2.42799H39.193V0.927994H34.2227ZM42.1753 0.927994V2.42799H47.1456V0.927994H42.1753ZM50.1279 0.927994V2.42799H55.0983V0.927994H50.1279ZM58.0805 0.927994V2.42799H63.0509V0.927994H58.0805ZM66.0331 0.927994V2.42799H71.0035V0.927994H66.0331ZM73.9857 0.927994V2.42799H78.9561V0.927994H73.9857ZM81.9383 0.927994V2.42799H86.9087V0.927994H81.9383ZM89.8909 0.927994V2.42799H94.8613V0.927994H89.8909ZM97.8436 0.927994V2.42799H102.814V0.927994H97.8436ZM105.796 0.927994V2.42799H110.767V0.927994H105.796ZM113.749 0.927994V2.42799H116.234C117.142 2.42799 118.022 2.53971 118.862 2.74942L119.226 1.29412C118.268 1.05496 117.266 0.927994 116.234 0.927994H113.749ZM128.541 18.7034H127.041V23.6738H128.541V18.7034ZM128.541 26.656H127.041V31.6264H128.541V26.656ZM128.541 34.6087H127.041V39.579H128.541V34.6087ZM128.541 42.5613H127.041V47.5317H128.541V42.5613ZM128.541 50.5139H127.041V55.4843H128.541V50.5139ZM128.541 58.4665H127.041V63.4369H128.541V58.4665ZM128.541 66.4191H127.041V71.3895H128.541V66.4191ZM128.541 74.3717H127.041V79.3421H128.541V74.3717ZM128.541 82.3243H127.041V87.2947H128.541V82.3243ZM128.541 90.277H127.041V95.2473H128.541V90.277ZM128.541 98.2296H127.041V103.2H128.541V98.2296ZM128.541 106.182H127.041V111.153H128.541V106.182ZM128.541 114.135H127.041V116.62C127.041 117.528 126.929 118.408 126.72 119.248L128.175 119.612C128.414 118.654 128.541 117.652 128.541 116.62V114.135ZM110.767 128.928V127.428H105.796V128.928H110.767ZM102.814 128.928V127.428H97.8434V128.928H102.814ZM94.8611 128.928V127.428H89.8907V128.928H94.8611ZM86.9084 128.928V127.428H81.938V128.928H86.9084ZM78.9557 128.928V127.428H73.9853V128.928H78.9557ZM71.003 128.928V127.428H66.0326V128.928H71.003ZM63.0504 128.928V127.428H58.0799V128.928H63.0504ZM55.0977 128.928V127.428H50.1272V128.928H55.0977ZM47.145 128.928V127.428H42.1745V128.928H47.145ZM39.1923 128.928V127.428H34.2218V128.928H39.1923ZM31.2396 128.928V127.428H26.2692V128.928H31.2396ZM23.2869 128.928V127.428H18.3165V128.928H23.2869ZM15.3342 128.928V127.428H12.849C11.9407 127.428 11.0606 127.316 10.2207 127.107L9.85732 128.562C10.8151 128.801 11.8172 128.928 12.849 128.928H15.3342ZM0.540985 111.153H2.04099V106.182H0.540985V111.153ZM0.540985 103.2H2.04099V98.2296H0.540985V103.2ZM0.540985 95.2473H2.04099V90.2769H0.540985V95.2473ZM0.540985 87.2947H2.04099V82.3243H0.540985V87.2947ZM0.540985 79.3421H2.04099V74.3717H0.540985V79.3421ZM0.540985 71.3895H2.04099V66.4191H0.540985V71.3895ZM0.540985 63.4369H2.04099V58.4665H0.540985V63.4369ZM0.540985 55.4843H2.04099V50.5139H0.540985V55.4843ZM0.540985 47.5316H2.04099V42.5613H0.540985V47.5316ZM0.540985 39.579H2.04099V34.6086H0.540985V39.579ZM0.540985 31.6264H2.04099V26.656H0.540985V31.6264ZM0.540985 23.6738H2.04099V18.7034H0.540985V23.6738ZM0.540985 15.7212H2.04099V13.236C2.04099 12.3276 2.1527 11.4474 2.3624 10.6075L0.907086 10.2442C0.667939 11.2019 0.540985 12.2041 0.540985 13.236V15.7212Z"/>
  </mask>
  <path fill-rule="evenodd" clip-rule="evenodd" d="M15.3352 0.927994H12.85C11.8181 0.927994 10.8159 1.05492 9.85812 1.294L10.2214 2.74934C11.0613 2.53968 11.9415 2.42799 12.85 2.42799H15.3352V0.927994ZM6.52109 2.67703L7.29332 3.96297C5.77045 4.87748 4.49088 6.15693 3.57627 7.6796L2.2904 6.90723C3.33157 5.17387 4.78752 3.71806 6.52109 2.67703ZM0.540985 114.135H2.04099V116.62C2.04099 117.528 2.1527 118.408 2.36241 119.248L0.907097 119.612C0.667947 118.654 0.540985 117.652 0.540985 116.62V114.135ZM2.29037 122.948L3.57624 122.176C4.49083 123.699 5.77033 124.978 7.29296 125.893L6.52061 127.179C4.78733 126.137 3.33149 124.682 2.29037 122.948ZM113.749 128.928V127.428H116.234C117.142 127.428 118.022 127.316 118.862 127.107L119.226 128.562C118.268 128.801 117.266 128.928 116.234 128.928H113.749ZM122.562 127.179L121.79 125.893C123.312 124.978 124.592 123.699 125.506 122.176L126.792 122.948C125.751 124.682 124.295 126.137 122.562 127.179ZM128.541 15.7212H127.041V13.236C127.041 12.3277 126.929 11.4475 126.72 10.6078L128.175 10.2444C128.414 11.2021 128.541 12.2042 128.541 13.236V15.7212ZM126.792 6.90773L125.506 7.68C124.592 6.1573 123.312 4.87783 121.79 3.96326L122.562 2.67742C124.295 3.71853 125.751 5.17437 126.792 6.90773ZM18.3174 0.927994V2.42799H23.2878V0.927994H18.3174ZM26.27 0.927994V2.42799H31.2404V0.927994H26.27ZM34.2227 0.927994V2.42799H39.193V0.927994H34.2227ZM42.1753 0.927994V2.42799H47.1456V0.927994H42.1753ZM50.1279 0.927994V2.42799H55.0983V0.927994H50.1279ZM58.0805 0.927994V2.42799H63.0509V0.927994H58.0805ZM66.0331 0.927994V2.42799H71.0035V0.927994H66.0331ZM73.9857 0.927994V2.42799H78.9561V0.927994H73.9857ZM81.9383 0.927994V2.42799H86.9087V0.927994H81.9383ZM89.8909 0.927994V2.42799H94.8613V0.927994H89.8909ZM97.8436 0.927994V2.42799H102.814V0.927994H97.8436ZM105.796 0.927994V2.42799H110.767V0.927994H105.796ZM113.749 0.927994V2.42799H116.234C117.142 2.42799 118.022 2.53971 118.862 2.74942L119.226 1.29412C118.268 1.05496 117.266 0.927994 116.234 0.927994H113.749ZM128.541 18.7034H127.041V23.6738H128.541V18.7034ZM128.541 26.656H127.041V31.6264H128.541V26.656ZM128.541 34.6087H127.041V39.579H128.541V34.6087ZM128.541 42.5613H127.041V47.5317H128.541V42.5613ZM128.541 50.5139H127.041V55.4843H128.541V50.5139ZM128.541 58.4665H127.041V63.4369H128.541V58.4665ZM128.541 66.4191H127.041V71.3895H128.541V66.4191ZM128.541 74.3717H127.041V79.3421H128.541V74.3717ZM128.541 82.3243H127.041V87.2947H128.541V82.3243ZM128.541 90.277H127.041V95.2473H128.541V90.277ZM128.541 98.2296H127.041V103.2H128.541V98.2296ZM128.541 106.182H127.041V111.153H128.541V106.182ZM128.541 114.135H127.041V116.62C127.041 117.528 126.929 118.408 126.72 119.248L128.175 119.612C128.414 118.654 128.541 117.652 128.541 116.62V114.135ZM110.767 128.928V127.428H105.796V128.928H110.767ZM102.814 128.928V127.428H97.8434V128.928H102.814ZM94.8611 128.928V127.428H89.8907V128.928H94.8611ZM86.9084 128.928V127.428H81.938V128.928H86.9084ZM78.9557 128.928V127.428H73.9853V128.928H78.9557ZM71.003 128.928V127.428H66.0326V128.928H71.003ZM63.0504 128.928V127.428H58.0799V128.928H63.0504ZM55.0977 128.928V127.428H50.1272V128.928H55.0977ZM47.145 128.928V127.428H42.1745V128.928H47.145ZM39.1923 128.928V127.428H34.2218V128.928H39.1923ZM31.2396 128.928V127.428H26.2692V128.928H31.2396ZM23.2869 128.928V127.428H18.3165V128.928H23.2869ZM15.3342 128.928V127.428H12.849C11.9407 127.428 11.0606 127.316 10.2207 127.107L9.85732 128.562C10.8151 128.801 11.8172 128.928 12.849 128.928H15.3342ZM0.540985 111.153H2.04099V106.182H0.540985V111.153ZM0.540985 103.2H2.04099V98.2296H0.540985V103.2ZM0.540985 95.2473H2.04099V90.2769H0.540985V95.2473ZM0.540985 87.2947H2.04099V82.3243H0.540985V87.2947ZM0.540985 79.3421H2.04099V74.3717H0.540985V79.3421ZM0.540985 71.3895H2.04099V66.4191H0.540985V71.3895ZM0.540985 63.4369H2.04099V58.4665H0.540985V63.4369ZM0.540985 55.4843H2.04099V50.5139H0.540985V55.4843ZM0.540985 47.5316H2.04099V42.5613H0.540985V47.5316ZM0.540985 39.579H2.04099V34.6086H0.540985V39.579ZM0.540985 31.6264H2.04099V26.656H0.540985V31.6264ZM0.540985 23.6738H2.04099V18.7034H0.540985V23.6738ZM0.540985 15.7212H2.04099V13.236C2.04099 12.3276 2.1527 11.4474 2.3624 10.6075L0.907086 10.2442C0.667939 11.2019 0.540985 12.2041 0.540985 13.236V15.7212Z" fill="#D6D6D6" stroke="#D6D6D6" stroke-width="3" stroke-dasharray="5 3" mask="url(#path-1-inside-1)"/>
  <path fill-rule="evenodd" clip-rule="evenodd" d="M52.506 65.515C53.028 44.84 66.579 35.805 71.272 40.328C75.964 44.84 74.223 54.568 65.363 60.65C56.505 66.733 52.506 65.515 52.506 65.515V65.515ZM65.363 86.537C53.324 86.841 54.592 78.932 54.592 78.932C54.592 78.932 98.545 63.89 86.56 34.178C81.174 26.533 74.915 24.131 66.058 24.306C57.198 24.479 46.288 29.882 39.164 45.869C35.766 53.499 34.612 60.726 33.919 66.203C33.919 66.203 26.134 67.766 21.964 64.299C17.796 60.827 15.604 64.299 15.604 64.299C15.604 64.299 8.42597 72.699 15.552 75.482C22.676 78.264 33.771 78.826 33.771 78.826H33.766C34.786 86.224 37.3 93.336 46.434 99.276C61.75 109.241 84.478 98.716 84.478 98.716C98.1 93.023 107.148 84.209 111.005 79.916C111.603 79.2499 111.927 78.3816 111.909 77.4864C111.892 76.5912 111.536 75.7358 110.913 75.093L106.477 70.483C105.86 69.8398 105.023 69.4533 104.133 69.4009C103.243 69.3484 102.366 69.6338 101.678 70.2C95.753 75.053 80.178 86.537 65.362 86.537" fill="#D6D6D6"/>
</svg>
