<svg width="16" height="16" viewBox="0 0 16 16" fill="none" xmlns="http://www.w3.org/2000/svg">
  <path d="M12 14.6667H2.22222C1.98647 14.6667 1.76038 14.573 1.59368 14.4063C1.42698 14.2396 1.33333 14.0135 1.33333 13.7778V4C1.33333 3.76426 1.42698 3.53816 1.59368 3.37146C1.76038 3.20476 1.98647 3.11111 2.22222 3.11111H6.66666V4H2.22222V13.7778H12V9.33334H12.8889V13.7778C12.8889 14.0135 12.7952 14.2396 12.6285 14.4063C12.4618 14.573 12.2357 14.6667 12 14.6667Z" fill="black"/>
  <path d="M8.00001 1.33334C7.88213 1.33334 7.76909 1.38017 7.68574 1.46352C7.60239 1.54687 7.55556 1.65991 7.55556 1.77779C7.55556 1.89566 7.60239 2.00871 7.68574 2.09206C7.76909 2.17541 7.88213 2.22223 8.00001 2.22223H13.1511L6.99556 8.37779C6.94904 8.41763 6.91125 8.46666 6.88457 8.5218C6.8579 8.57694 6.84291 8.637 6.84054 8.69821C6.83818 8.75942 6.84849 8.82045 6.87083 8.87749C6.89318 8.93452 6.92707 8.98632 6.97038 9.02963C7.0137 9.07295 7.0655 9.10684 7.12253 9.12918C7.17956 9.15153 7.2406 9.16184 7.30181 9.15948C7.36302 9.15711 7.42308 9.14212 7.47822 9.11544C7.53336 9.08877 7.58239 9.05098 7.62223 9.00445L13.7778 2.8489V8.00001C13.7778 8.11788 13.8246 8.23093 13.908 8.31428C13.9913 8.39763 14.1044 8.44445 14.2222 8.44445C14.3401 8.44445 14.4531 8.39763 14.5365 8.31428C14.6198 8.23093 14.6667 8.11788 14.6667 8.00001V1.33334H8.00001Z" fill="black"/>
</svg>
