<svg aria-hidden="true" version="1.1" width="20" height="20" viewBox="0 0 36 36" preserveAspectRatio="xMidYMid meet" xmlns="http://www.w3.org/2000/svg">
  <path class="nav-icon-stroke" d="M24.4794 9.4926V8.2105C24.4794 7.14209 24.1768 6.07367 23.5716 5.00525C23.1681 3.93683 22.4621 3.18894 21.4534 2.76158C20.4447 2.12053 19.3352 1.8 18.1248 1.8C17.1161 1.8 16.1075 2.12053 15.0988 2.76158C14.2919 3.18894 13.5858 3.93683 12.9806 5.00525C12.3754 6.07367 12.0728 7.14209 12.0728 8.2105V9.4926H10.2572L6.92858 5.96683L5.71818 7.24892L9.04678 10.7747V11.0952C8.23985 13.0184 7.83638 15.0484 7.83638 17.1852V18.7878H3.59998V20.711H8.13898C8.54245 22.8478 9.24852 24.7709 10.2572 26.4804L6.02078 30.9678L7.53378 32.2499L11.4676 28.083C12.4763 29.3651 13.4849 30.3267 14.4936 30.9678C15.704 31.3951 16.9144 31.6088 18.1248 31.6088C19.5369 31.6088 20.7473 31.3951 21.756 30.9678C22.9664 30.3267 24.0759 29.472 25.0846 28.4036L25.3872 28.083L29.321 32.5704L30.5314 30.9678L26.295 26.4804C27.3037 24.7709 28.0097 22.8478 28.4132 20.711H32.9522V18.7878H28.7158V17.1852C28.7158 15.0484 28.4132 12.9115 27.808 10.7747H27.5054L30.834 7.24892L29.6236 5.96683L26.295 9.4926H24.4794ZM13.8884 9.4926V8.2105C13.8884 6.9284 14.2919 5.85998 15.0988 5.00525C16.1075 4.15052 17.217 3.72315 18.4274 3.72315C19.6378 3.72315 20.6465 4.15052 21.4534 5.00525C22.2603 5.85998 22.6638 6.9284 22.6638 8.2105V9.4926H13.8884ZM25.9924 11.4157V11.7363C26.5976 13.4457 26.9002 15.262 26.9002 17.1852C26.9002 19.1083 26.6985 20.8178 26.295 22.3136C25.8915 23.8094 25.1855 25.1983 24.1768 26.4804C23.3699 27.5488 22.4621 28.4036 21.4534 29.0446C20.4447 29.6857 19.3352 30.0062 18.1248 30.0062C17.1161 30.0062 16.1075 29.6857 15.0988 29.0446C14.0901 28.4036 13.1823 27.5488 12.3754 26.4804C11.5685 25.1983 10.8624 23.8094 10.2572 22.3136C9.85372 20.8178 9.65199 19.1083 9.65199 17.1852C9.65199 15.262 9.95459 13.4457 10.5598 11.7363V11.4157H25.9924Z" fill="#666666"/>
</svg>
