<svg aria-hidden="true" version="1.1" width="20" height="20" viewBox="0 0 36 36" preserveAspectRatio="xMidYMid meet" xmlns="http://www.w3.org/2000/svg" xmlns:xlink="http://www.w3.org/1999/xlink">
  <path class="nav-icon-stroke" d="M27,22V14a2,2,0,0,0-2-2H11a2,2,0,0,0-2,2v8a2,2,0,0,0,2,2H25A2,2,0,0,0,27,22ZM11,14H25v8H11Z"></path>
  <rect class="nav-icon-stroke" x="19" y="6" width="4" height="2"></rect>
  <rect class="nav-icon-stroke" x="25.01" y="6" width="1.97" height="2"></rect>
  <path class="nav-icon-stroke" d="M5.8,8H16.87V6h-11L7.78,4.08a1,1,0,0,0,0-1.42,1,1,0,0,0-1.41,0L2,7,6.37,11.4a1,1,0,0,0,1.41,0,1,1,0,0,0,0-1.41Z"></path>
  <path class="nav-icon-stroke" d="M29.61,24.68a1,1,0,0,0-1.41,0,1,1,0,0,0,0,1.42L30.1,28H19v2H30.2l-2,2a1,1,0,0,0,0,1.41,1,1,0,0,0,.7.29,1,1,0,0,0,.71-.29L34,29.05Z"></path>
  <rect class="nav-icon-stroke" x="13" y="28" width="4" height="2"></rect>
  <rect class="nav-icon-stroke" x="9" y="28" width="1.97" height="2"></rect>
</svg>