<svg aria-hidden="true" version="1.1" width="20" height="20"  viewBox="0 0 36 36" preserveAspectRatio="xMidYMid meet" xmlns="http://www.w3.org/2000/svg" xmlns:xlink="http://www.w3.org/1999/xlink">
  <circle class="nav-icon-stroke" cx="17.97" cy="10.45" r="1.4"></circle>
  <path class="nav-icon-stroke" d="M21,25H19V14.1H16a1,1,0,0,0,0,2h1V25H15a1,1,0,0,0,0,2h6a1,1,0,0,0,0-2Z"></path>
  <path class="nav-icon-stroke" d="M18,34A16,16,0,1,1,34,18,16,16,0,0,1,18,34ZM18,4A14,14,0,1,0,32,18,14,14,0,0,0,18,4Z"></path>
</svg>