<svg xmlns="http://www.w3.org/2000/svg" viewBox="0 0 64 30" width="64" height="30">
  <g fill="none">
    <path class="send-chevron" fill="#2C7FB3" d="M0 7l4-4 11.9 12L4.2 27 .1 23l8-8z"/>
    <path class="send-text"    fill="#555" d="M36.5 13.7c4.8 1.2 6.8 3.1 6.8 6.7 0 4-2.9 6.7-7.4 7.1v1.9h-2v-1.8c-4.5-.3-7.5-2.9-7.7-6.9h3c.2 2.3 2 3.8 4.7 4.1v-8.6l-.7-.2c-4.5-1.1-6.6-3.2-6.6-6.7 0-3.8 2.8-6.4 7.1-6.8V.7h2v1.9c4.1.4 6.8 2.9 7 6.6h-3c-.3-2.1-1.8-3.5-4-3.9v8.2l.8.2zm-2.8-8.4c-2.5.3-4 1.7-4 3.9 0 1.9 1.1 3 4 3.8V5.3zm2.1 19.4c2.6-.3 4.3-1.9 4.3-4.1 0-2-1.3-3.2-4.3-4v8.1zM63.1 27H48.7V3h14.4v3.1H52.2v7.3h10.3v2.9H52.2V24h10.9z"/>
  </g>
</svg>